<?xml version="1.0" encoding="UTF-8"?>
<!--Generator: Apple Native CoreSVG 232.5-->
<!DOCTYPE svg
PUBLIC "-//W3C//DTD SVG 1.1//EN"
       "http://www.w3.org/Graphics/SVG/1.1/DTD/svg11.dtd">
<svg version="1.1" xmlns="http://www.w3.org/2000/svg" xmlns:xlink="http://www.w3.org/1999/xlink" width="20" height="20">
 <g>
  <rect height="20" opacity="0" width="20" x="0" y="0"/>
  <path d="M0 25.6836C0 32.0557 3.54004 35.5469 10.2295 35.5469L18.7012 35.5469C27.1484 36.5234 36.0107 39.3066 43.6768 44.0186L43.6768 39.6729C36.2061 35.083 27.5879 32.5684 18.5547 31.6162L10.2295 31.6162C5.76172 31.6162 3.93066 29.8828 3.93066 25.6836L3.93066 22.0947C3.93066 17.8711 5.76172 16.1621 10.2295 16.1621L18.335 16.1621C27.5391 15.2344 36.3525 12.6221 43.6768 8.08105L43.6768 3.75977C36.3281 8.44727 26.5137 11.4014 18.8477 12.2314L10.2295 12.2314C3.54004 12.2314 0 15.6738 0 22.0947ZM22.7051 35.2295L18.9941 35.2295L21.0449 45.6299C21.2402 46.7285 20.6787 47.4365 19.8975 47.7051C19.0674 47.998 17.9932 47.7295 17.4316 46.5576L11.9141 34.7656L7.91016 34.7656L13.5498 47.2656C15.5518 51.7334 19.0186 52.002 21.3867 51.2695C23.7793 50.5127 25.2441 48.291 24.6094 45.0439ZM15.4053 14.0869L15.4053 33.6914L19.3604 33.6914L19.3604 14.0869ZM42.2852 41.5771C42.2852 45.1904 44.7266 47.6074 48.3154 47.6074C51.9531 47.6074 54.3701 45.1904 54.3701 41.5771L54.3701 6.03027C54.3701 2.41699 51.9531 0 48.3154 0C44.7266 0 42.2852 2.41699 42.2852 6.03027ZM46.2402 41.5771L46.2402 6.03027C46.2402 4.76074 47.0459 3.93066 48.3154 3.93066C49.585 3.93066 50.4395 4.76074 50.4395 6.03027L50.4395 41.5771C50.4395 42.8467 49.585 43.6768 48.3154 43.6768C47.0459 43.6768 46.2402 42.8467 46.2402 41.5771Z" fill="#ff453a"/>
 </g>
</svg>
