<?xml version="1.0" encoding="UTF-8"?>
<!--Generator: Apple Native CoreSVG 232.5-->
<!DOCTYPE svg
PUBLIC "-//W3C//DTD SVG 1.1//EN"
       "http://www.w3.org/Graphics/SVG/1.1/DTD/svg11.dtd">
<svg version="1.1" xmlns="http://www.w3.org/2000/svg" xmlns:xlink="http://www.w3.org/1999/xlink" width="413.379" height="396.533">
 <g>
  <rect height="396.533" opacity="0" width="413.379" x="0" y="0"/>
  <path d="M0 198.779C0 246.24 26.0742 271.875 75.4395 271.875L142.822 271.875C208.74 279.199 280.664 300.586 336.328 337.793L336.328 308.789C281.396 272.314 211.963 253.271 141.943 245.947L75.4395 245.947C41.0156 245.947 25.9277 231.738 25.9277 198.779L25.9277 169.336C25.9277 136.377 41.0156 122.168 75.4395 122.168L140.625 122.168C211.67 114.99 282.275 95.3613 336.328 59.3262L336.328 30.3223C282.568 67.3828 204.932 89.7949 143.848 96.2402L75.4395 96.2402C26.0742 96.2402 0 121.729 0 169.336ZM172.412 269.531L147.803 269.531L163.77 350.977C165.674 361.084 160.693 367.383 153.662 369.873C146.191 372.51 136.377 370.312 131.25 359.18L88.0371 266.162L61.377 266.162L105.469 363.721C120.41 396.68 145.312 399.023 163.33 393.457C181.055 388.037 192.188 371.777 187.354 347.021ZM120.85 108.838L120.85 259.424L146.924 259.424L146.924 108.838ZM326.953 324.023C326.953 349.951 344.385 367.09 370.166 367.09C396.094 367.09 413.379 349.951 413.379 324.023L413.379 43.2129C413.379 17.2852 396.094 0 370.166 0C344.385 0 326.953 17.2852 326.953 43.2129ZM353.027 324.023L353.027 43.2129C353.027 32.8125 359.766 25.9277 370.166 25.9277C380.566 25.9277 387.451 32.8125 387.451 43.2129L387.451 324.023C387.451 334.277 380.566 341.162 370.166 341.162C359.766 341.162 353.027 334.277 353.027 324.023Z" fill="#ff453a"/>
 </g>
</svg>
